<svg width="17" height="20" viewBox="0 0 17 20" fill="none" xmlns="http://www.w3.org/2000/svg">
<path d="M12.75 0C10.4125 0 8.5 1.125 8.5 2.5C8.5 3.875 10.4125 5 12.75 5C15.0875 5 17 3.875 17 2.5C17 1.125 15.0875 0 12.75 0ZM6.375 6.25C2.8475 6.25 0 7.925 0 10H4.25C4.25 9.3 5.185 8.75 6.375 8.75C7.565 8.75 8.5 9.3 8.5 10C8.5 10.7 4.25 14.1 4.25 16.25C4.25 18.4 7.0975 20 10.625 20C14.1525 20 17 18.325 17 16.25H12.75C12.75 16.95 11.815 17.5 10.625 17.5C9.435 17.5 8.5 16.95 8.5 16.25C8.5 15.35 12.75 11.65 12.75 10C12.75 7.975 9.9025 6.25 6.375 6.25Z" fill="white"/>
</svg>
